solid OpenSCAD_Model
  facet normal 0.866025 -0.5 0
    outer loop
      vertex -13 12.268 100
      vertex -12 14 3
      vertex -12 14 100
    endloop
  endfacet
  facet normal 0.866025 -0.5 0
    outer loop
      vertex -12 14 3
      vertex -13 12.268 100
      vertex -13 12.268 3
    endloop
  endfacet
  facet normal -0.866025 -0.500001 0
    outer loop
      vertex -15 12.268 3
      vertex -16 14 100
      vertex -16 14 3
    endloop
  endfacet
  facet normal -0.866025 -0.500001 0
    outer loop
      vertex -16 14 100
      vertex -15 12.268 3
      vertex -15 12.268 100
    endloop
  endfacet
  facet normal 0 -1 0
    outer loop
      vertex -15 12.268 3
      vertex -13 12.268 100
      vertex -15 12.268 100
    endloop
  endfacet
  facet normal 0 -1 -0
    outer loop
      vertex -13 12.268 100
      vertex -15 12.268 3
      vertex -13 12.268 3
    endloop
  endfacet
  facet normal -0.866025 0.5 0
    outer loop
      vertex -16 14 3
      vertex -15 15.732 100
      vertex -15 15.732 3
    endloop
  endfacet
  facet normal -0.866025 0.5 0
    outer loop
      vertex -15 15.732 100
      vertex -16 14 3
      vertex -16 14 100
    endloop
  endfacet
  facet normal -1.90199e-023 -1.22461e-016 -1
    outer loop
      vertex -14 -19.5355 4.10678e-015
      vertex -2.53553 -1 1.83691e-015
      vertex 1 -4.53553 2.26987e-015
    endloop
  endfacet
  facet normal 1.79858e-023 -1.22461e-016 -1
    outer loop
      vertex -2.53553 -1 1.83691e-015
      vertex -14 -19.5355 4.10678e-015
      vertex -17.5355 -16 3.67382e-015
    endloop
  endfacet
  facet normal 4.54409e-023 -1.22461e-016 -1
    outer loop
      vertex 15.9813 -19.5169 4.1045e-015
      vertex 4.53553 -1 1.83691e-015
      vertex 19.5169 -15.9813 3.67153e-015
    endloop
  endfacet
  facet normal 1.35298e-023 -1.22461e-016 -1
    outer loop
      vertex 1 -4.53553 2.26987e-015
      vertex 4.53553 -1 1.83691e-015
      vertex 15.9813 -19.5169 4.1045e-015
    endloop
  endfacet
  facet normal 2.32317e-023 -1.22461e-016 -1
    outer loop
      vertex 4.53553 -1 1.83691e-015
      vertex 1 -4.53553 2.26987e-015
      vertex 1 2.53553 1.40395e-015
    endloop
  endfacet
  facet normal -1.49736e-023 -1.22461e-016 -1
    outer loop
      vertex -2.53553 -1 1.83691e-015
      vertex 1 2.53553 1.40395e-015
      vertex 1 -4.53553 2.26987e-015
    endloop
  endfacet
  facet normal -3.89459e-024 -1.22461e-016 -1
    outer loop
      vertex -2.53553 -1 1.83691e-015
      vertex -14 17.5355 -4.32964e-016
      vertex 1 2.53553 1.40395e-015
    endloop
  endfacet
  facet normal 7.31131e-025 -1.22461e-016 -1
    outer loop
      vertex -14 17.5355 -4.32964e-016
      vertex -2.53553 -1 1.83691e-015
      vertex -17.5355 14 0
    endloop
  endfacet
  facet normal -1.33442e-024 -1.22461e-016 -1
    outer loop
      vertex 4.53553 -1 1.83691e-015
      vertex 15.9813 17.5169 -4.30677e-016
      vertex 19.5169 13.9813 2.28658e-018
    endloop
  endfacet
  facet normal 7.93503e-024 -1.22461e-016 -1
    outer loop
      vertex 15.9813 17.5169 -4.30677e-016
      vertex 4.53553 -1 1.83691e-015
      vertex 1 2.53553 1.40395e-015
    endloop
  endfacet
  facet normal 0.866025 0.5 0
    outer loop
      vertex -12 14 100
      vertex -13 15.732 3
      vertex -13 15.732 100
    endloop
  endfacet
  facet normal 0.866025 0.5 0
    outer loop
      vertex -13 15.732 3
      vertex -12 14 100
      vertex -12 14 3
    endloop
  endfacet
  facet normal 0 0 1
    outer loop
      vertex -13 15.732 100
      vertex -13 12.268 100
      vertex -12 14 100
    endloop
  endfacet
  facet normal 0 0 1
    outer loop
      vertex -13 15.732 100
      vertex -15 12.268 100
      vertex -13 12.268 100
    endloop
  endfacet
  facet normal -0 0 1
    outer loop
      vertex -15 15.732 100
      vertex -15 12.268 100
      vertex -13 15.732 100
    endloop
  endfacet
  facet normal 0 0 1
    outer loop
      vertex -15 12.268 100
      vertex -15 15.732 100
      vertex -16 14 100
    endloop
  endfacet
  facet normal 0 1 -0
    outer loop
      vertex -13 15.732 3
      vertex -15 15.732 100
      vertex -13 15.732 100
    endloop
  endfacet
  facet normal 0 1 0
    outer loop
      vertex -15 15.732 100
      vertex -13 15.732 3
      vertex -15 15.732 3
    endloop
  endfacet
  facet normal 0.866025 -0.5 0
    outer loop
      vertex 17 12.268 100
      vertex 18 14 3
      vertex 18 14 100
    endloop
  endfacet
  facet normal 0.866025 -0.5 0
    outer loop
      vertex 18 14 3
      vertex 17 12.268 100
      vertex 17 12.268 3
    endloop
  endfacet
  facet normal -0.866025 -0.5 0
    outer loop
      vertex 15 12.268 3
      vertex 14 14 100
      vertex 14 14 3
    endloop
  endfacet
  facet normal -0.866025 -0.5 0
    outer loop
      vertex 14 14 100
      vertex 15 12.268 3
      vertex 15 12.268 100
    endloop
  endfacet
  facet normal 0 -1 0
    outer loop
      vertex 15 12.268 3
      vertex 17 12.268 100
      vertex 15 12.268 100
    endloop
  endfacet
  facet normal 0 -1 -0
    outer loop
      vertex 17 12.268 100
      vertex 15 12.268 3
      vertex 17 12.268 3
    endloop
  endfacet
  facet normal 0.866025 0.5 0
    outer loop
      vertex 18 14 100
      vertex 17 15.732 3
      vertex 17 15.732 100
    endloop
  endfacet
  facet normal 0.866025 0.5 0
    outer loop
      vertex 17 15.732 3
      vertex 18 14 100
      vertex 18 14 3
    endloop
  endfacet
  facet normal 0 0 1
    outer loop
      vertex 17 15.732 100
      vertex 17 12.268 100
      vertex 18 14 100
    endloop
  endfacet
  facet normal -0 0 1
    outer loop
      vertex 15 15.732 100
      vertex 17 12.268 100
      vertex 17 15.732 100
    endloop
  endfacet
  facet normal 0 0 1
    outer loop
      vertex 15 15.732 100
      vertex 15 12.268 100
      vertex 17 12.268 100
    endloop
  endfacet
  facet normal 0 -0 1
    outer loop
      vertex 15 12.268 100
      vertex 15 15.732 100
      vertex 14 14 100
    endloop
  endfacet
  facet normal 0 1 -0
    outer loop
      vertex 17 15.732 3
      vertex 15 15.732 100
      vertex 17 15.732 100
    endloop
  endfacet
  facet normal 0 1 0
    outer loop
      vertex 15 15.732 100
      vertex 17 15.732 3
      vertex 15 15.732 3
    endloop
  endfacet
  facet normal -0.866025 0.5 0
    outer loop
      vertex 14 14 3
      vertex 15 15.732 100
      vertex 15 15.732 3
    endloop
  endfacet
  facet normal -0.866025 0.5 0
    outer loop
      vertex 15 15.732 100
      vertex 14 14 3
      vertex 14 14 100
    endloop
  endfacet
  facet normal 0 0 1
    outer loop
      vertex -13 -14.2679 100
      vertex -13 -17.732 100
      vertex -12 -16 100
    endloop
  endfacet
  facet normal 0 0 1
    outer loop
      vertex -13 -14.2679 100
      vertex -15 -17.732 100
      vertex -13 -17.732 100
    endloop
  endfacet
  facet normal -0 0 1
    outer loop
      vertex -15 -14.2679 100
      vertex -15 -17.732 100
      vertex -13 -14.2679 100
    endloop
  endfacet
  facet normal 0 0 1
    outer loop
      vertex -15 -17.732 100
      vertex -15 -14.2679 100
      vertex -16 -16 100
    endloop
  endfacet
  facet normal 0.866025 -0.5 0
    outer loop
      vertex -13 -17.732 100
      vertex -12 -16 3
      vertex -12 -16 100
    endloop
  endfacet
  facet normal 0.866025 -0.5 0
    outer loop
      vertex -12 -16 3
      vertex -13 -17.732 100
      vertex -13 -17.732 3
    endloop
  endfacet
  facet normal 0 1 -0
    outer loop
      vertex -13 -14.2679 3
      vertex -15 -14.2679 100
      vertex -13 -14.2679 100
    endloop
  endfacet
  facet normal 0 1 0
    outer loop
      vertex -15 -14.2679 100
      vertex -13 -14.2679 3
      vertex -15 -14.2679 3
    endloop
  endfacet
  facet normal -0.866025 -0.500001 0
    outer loop
      vertex -15 -17.732 3
      vertex -16 -16 100
      vertex -16 -16 3
    endloop
  endfacet
  facet normal -0.866025 -0.500001 0
    outer loop
      vertex -16 -16 100
      vertex -15 -17.732 3
      vertex -15 -17.732 100
    endloop
  endfacet
  facet normal 0 -1 0
    outer loop
      vertex -15 -17.732 3
      vertex -13 -17.732 100
      vertex -15 -17.732 100
    endloop
  endfacet
  facet normal 0 -1 -0
    outer loop
      vertex -13 -17.732 100
      vertex -15 -17.732 3
      vertex -13 -17.732 3
    endloop
  endfacet
  facet normal -0.866025 0.5 0
    outer loop
      vertex -16 -16 3
      vertex -15 -14.2679 100
      vertex -15 -14.2679 3
    endloop
  endfacet
  facet normal -0.866025 0.5 0
    outer loop
      vertex -15 -14.2679 100
      vertex -16 -16 3
      vertex -16 -16 100
    endloop
  endfacet
  facet normal 0.866025 0.5 0
    outer loop
      vertex -12 -16 100
      vertex -13 -14.2679 3
      vertex -13 -14.2679 100
    endloop
  endfacet
  facet normal 0.866025 0.5 0
    outer loop
      vertex -13 -14.2679 3
      vertex -12 -16 100
      vertex -12 -16 3
    endloop
  endfacet
  facet normal 0 0 1
    outer loop
      vertex 17 -14.2679 100
      vertex 17 -17.732 100
      vertex 18 -16 100
    endloop
  endfacet
  facet normal -0 0 1
    outer loop
      vertex 15 -14.2679 100
      vertex 17 -17.732 100
      vertex 17 -14.2679 100
    endloop
  endfacet
  facet normal 0 0 1
    outer loop
      vertex 15 -14.2679 100
      vertex 15 -17.732 100
      vertex 17 -17.732 100
    endloop
  endfacet
  facet normal 0 -0 1
    outer loop
      vertex 15 -17.732 100
      vertex 15 -14.2679 100
      vertex 14 -16 100
    endloop
  endfacet
  facet normal 0.866025 -0.5 0
    outer loop
      vertex 17 -17.732 100
      vertex 18 -16 3
      vertex 18 -16 100
    endloop
  endfacet
  facet normal 0.866025 -0.5 0
    outer loop
      vertex 18 -16 3
      vertex 17 -17.732 100
      vertex 17 -17.732 3
    endloop
  endfacet
  facet normal 0 1 -0
    outer loop
      vertex 17 -14.2679 3
      vertex 15 -14.2679 100
      vertex 17 -14.2679 100
    endloop
  endfacet
  facet normal 0 1 0
    outer loop
      vertex 15 -14.2679 100
      vertex 17 -14.2679 3
      vertex 15 -14.2679 3
    endloop
  endfacet
  facet normal -0.866025 -0.5 0
    outer loop
      vertex 15 -17.732 3
      vertex 14 -16 100
      vertex 14 -16 3
    endloop
  endfacet
  facet normal -0.866025 -0.5 0
    outer loop
      vertex 14 -16 100
      vertex 15 -17.732 3
      vertex 15 -17.732 100
    endloop
  endfacet
  facet normal 0 -1 0
    outer loop
      vertex 15 -17.732 3
      vertex 17 -17.732 100
      vertex 15 -17.732 100
    endloop
  endfacet
  facet normal 0 -1 -0
    outer loop
      vertex 17 -17.732 100
      vertex 15 -17.732 3
      vertex 17 -17.732 3
    endloop
  endfacet
  facet normal -0.866025 0.5 0
    outer loop
      vertex 14 -16 3
      vertex 15 -14.2679 100
      vertex 15 -14.2679 3
    endloop
  endfacet
  facet normal -0.866025 0.5 0
    outer loop
      vertex 15 -14.2679 100
      vertex 14 -16 3
      vertex 14 -16 100
    endloop
  endfacet
  facet normal 0.866025 0.5 0
    outer loop
      vertex 18 -16 100
      vertex 17 -14.2679 3
      vertex 17 -14.2679 100
    endloop
  endfacet
  facet normal 0.866025 0.5 0
    outer loop
      vertex 17 -14.2679 3
      vertex 18 -16 100
      vertex 18 -16 3
    endloop
  endfacet
  facet normal 0.707107 -0.707107 0
    outer loop
      vertex 15.9813 -19.5169 3
      vertex 19.5169 -15.9813 3.67153e-015
      vertex 19.5169 -15.9813 3
    endloop
  endfacet
  facet normal 0.707107 -0.707107 0
    outer loop
      vertex 19.5169 -15.9813 3.67153e-015
      vertex 15.9813 -19.5169 3
      vertex 15.9813 -19.5169 4.1045e-015
    endloop
  endfacet
  facet normal -0.707107 0.707107 0
    outer loop
      vertex -17.5355 14 0
      vertex -14 17.5355 3
      vertex -14 17.5355 -4.32964e-016
    endloop
  endfacet
  facet normal -0.707107 0.707107 0
    outer loop
      vertex -14 17.5355 3
      vertex -17.5355 14 0
      vertex -17.5355 14 3
    endloop
  endfacet
  facet normal 0 0 1
    outer loop
      vertex 19.5169 13.9813 3
      vertex 17 15.732 3
      vertex 18 14 3
    endloop
  endfacet
  facet normal 0 0 1
    outer loop
      vertex 15.9813 17.5169 3
      vertex 17 15.732 3
      vertex 19.5169 13.9813 3
    endloop
  endfacet
  facet normal 0 0 1
    outer loop
      vertex 15.9813 17.5169 3
      vertex 15 15.732 3
      vertex 17 15.732 3
    endloop
  endfacet
  facet normal 0 0 1
    outer loop
      vertex 1 2.53553 3
      vertex 15 15.732 3
      vertex 15.9813 17.5169 3
    endloop
  endfacet
  facet normal 0 0 1
    outer loop
      vertex 15 15.732 3
      vertex 1 2.53553 3
      vertex 14 14 3
    endloop
  endfacet
  facet normal 0 0 1
    outer loop
      vertex 14 14 3
      vertex 1 2.53553 3
      vertex 4.53553 -1 3
    endloop
  endfacet
  facet normal 0 0 1
    outer loop
      vertex 17 12.268 3
      vertex 19.5169 13.9813 3
      vertex 18 14 3
    endloop
  endfacet
  facet normal -0 0 1
    outer loop
      vertex 17 12.268 3
      vertex 4.53553 -1 3
      vertex 19.5169 13.9813 3
    endloop
  endfacet
  facet normal -0 0 1
    outer loop
      vertex 15 12.268 3
      vertex 4.53553 -1 3
      vertex 17 12.268 3
    endloop
  endfacet
  facet normal 0 0 1
    outer loop
      vertex 4.53553 -1 3
      vertex 15 12.268 3
      vertex 14 14 3
    endloop
  endfacet
  facet normal 0 0 1
    outer loop
      vertex 1 -4.53553 3
      vertex -13 -14.2679 3
      vertex -12 -16 3
    endloop
  endfacet
  facet normal 0 0 1
    outer loop
      vertex -2.53553 -1 3
      vertex -15 -14.2679 3
      vertex -13 -14.2679 3
    endloop
  endfacet
  facet normal 0 0 1
    outer loop
      vertex -15 -14.2679 3
      vertex -17.5355 -16 3
      vertex -16 -16 3
    endloop
  endfacet
  facet normal 0 0 1
    outer loop
      vertex -17.5355 -16 3
      vertex -15 -14.2679 3
      vertex -2.53553 -1 3
    endloop
  endfacet
  facet normal 0 0 1
    outer loop
      vertex -13 -14.2679 3
      vertex 1 -4.53553 3
      vertex -2.53553 -1 3
    endloop
  endfacet
  facet normal 0 0 1
    outer loop
      vertex -13 -17.732 3
      vertex 1 -4.53553 3
      vertex -12 -16 3
    endloop
  endfacet
  facet normal -0 0 1
    outer loop
      vertex -13 -17.732 3
      vertex -14 -19.5355 3
      vertex 1 -4.53553 3
    endloop
  endfacet
  facet normal -0 0 1
    outer loop
      vertex -15 -17.732 3
      vertex -14 -19.5355 3
      vertex -13 -17.732 3
    endloop
  endfacet
  facet normal -0 0 1
    outer loop
      vertex -17.5355 -16 3
      vertex -15 -17.732 3
      vertex -16 -16 3
    endloop
  endfacet
  facet normal 0 0 1
    outer loop
      vertex -15 -17.732 3
      vertex -17.5355 -16 3
      vertex -14 -19.5355 3
    endloop
  endfacet
  facet normal 0 0 1
    outer loop
      vertex 1 2.53553 3
      vertex -13 12.268 3
      vertex -2.53553 -1 3
    endloop
  endfacet
  facet normal -0 0 1
    outer loop
      vertex -15 12.268 3
      vertex -2.53553 -1 3
      vertex -13 12.268 3
    endloop
  endfacet
  facet normal 0 0 1
    outer loop
      vertex -15 12.268 3
      vertex -17.5355 14 3
      vertex -2.53553 -1 3
    endloop
  endfacet
  facet normal -0 0 1
    outer loop
      vertex -17.5355 14 3
      vertex -15 12.268 3
      vertex -16 14 3
    endloop
  endfacet
  facet normal 0 0 1
    outer loop
      vertex 19.5169 -15.9813 3
      vertex 17 -14.2679 3
      vertex 18 -16 3
    endloop
  endfacet
  facet normal -0 0 1
    outer loop
      vertex 1 -4.53553 3
      vertex 15 -14.2679 3
      vertex 4.53553 -1 3
    endloop
  endfacet
  facet normal 0 0 1
    outer loop
      vertex 17 -14.2679 3
      vertex 4.53553 -1 3
      vertex 15 -14.2679 3
    endloop
  endfacet
  facet normal 0 0 1
    outer loop
      vertex 4.53553 -1 3
      vertex 17 -14.2679 3
      vertex 19.5169 -15.9813 3
    endloop
  endfacet
  facet normal 0 0 1
    outer loop
      vertex 17 -17.732 3
      vertex 19.5169 -15.9813 3
      vertex 18 -16 3
    endloop
  endfacet
  facet normal -0 0 1
    outer loop
      vertex 17 -17.732 3
      vertex 15.9813 -19.5169 3
      vertex 19.5169 -15.9813 3
    endloop
  endfacet
  facet normal -0 0 1
    outer loop
      vertex 15 -17.732 3
      vertex 15.9813 -19.5169 3
      vertex 17 -17.732 3
    endloop
  endfacet
  facet normal 0 0 1
    outer loop
      vertex 1 -4.53553 3
      vertex 15 -17.732 3
      vertex 14 -16 3
    endloop
  endfacet
  facet normal 0 0 1
    outer loop
      vertex 15 -14.2679 3
      vertex 1 -4.53553 3
      vertex 14 -16 3
    endloop
  endfacet
  facet normal 0 0 1
    outer loop
      vertex 1 -4.53553 3
      vertex 4.53553 -1 3
      vertex 1 2.53553 3
    endloop
  endfacet
  facet normal 0 0 1
    outer loop
      vertex 15 -17.732 3
      vertex 1 -4.53553 3
      vertex 15.9813 -19.5169 3
    endloop
  endfacet
  facet normal 0 0 1
    outer loop
      vertex 1 2.53553 3
      vertex -2.53553 -1 3
      vertex 1 -4.53553 3
    endloop
  endfacet
  facet normal -0 0 1
    outer loop
      vertex -13 12.268 3
      vertex 1 2.53553 3
      vertex -12 14 3
    endloop
  endfacet
  facet normal 0 0 1
    outer loop
      vertex 1 2.53553 3
      vertex -13 15.732 3
      vertex -12 14 3
    endloop
  endfacet
  facet normal 0 0 1
    outer loop
      vertex -14 17.5355 3
      vertex -13 15.732 3
      vertex 1 2.53553 3
    endloop
  endfacet
  facet normal 0 0 1
    outer loop
      vertex -14 17.5355 3
      vertex -15 15.732 3
      vertex -13 15.732 3
    endloop
  endfacet
  facet normal 0 0 1
    outer loop
      vertex -17.5355 14 3
      vertex -15 15.732 3
      vertex -14 17.5355 3
    endloop
  endfacet
  facet normal 0 0 1
    outer loop
      vertex -15 15.732 3
      vertex -17.5355 14 3
      vertex -16 14 3
    endloop
  endfacet
  facet normal 0.707107 0.707107 0
    outer loop
      vertex 1 2.53553 3
      vertex -14 17.5355 -4.32964e-016
      vertex -14 17.5355 3
    endloop
  endfacet
  facet normal 0.707107 0.707107 0
    outer loop
      vertex -14 17.5355 -4.32964e-016
      vertex 1 2.53553 3
      vertex 1 2.53553 1.40395e-015
    endloop
  endfacet
  facet normal 0.707107 0.707107 0
    outer loop
      vertex 19.5169 -15.9813 3
      vertex 4.53553 -1 1.83691e-015
      vertex 4.53553 -1 3
    endloop
  endfacet
  facet normal 0.707107 0.707107 0
    outer loop
      vertex 4.53553 -1 1.83691e-015
      vertex 19.5169 -15.9813 3
      vertex 19.5169 -15.9813 3.67153e-015
    endloop
  endfacet
  facet normal -0.707107 -0.707107 0
    outer loop
      vertex 15.9813 -19.5169 4.1045e-015
      vertex 1 -4.53553 3
      vertex 1 -4.53553 2.26987e-015
    endloop
  endfacet
  facet normal -0.707107 -0.707107 0
    outer loop
      vertex 1 -4.53553 3
      vertex 15.9813 -19.5169 4.1045e-015
      vertex 15.9813 -19.5169 3
    endloop
  endfacet
  facet normal -0.707107 -0.707107 0
    outer loop
      vertex -2.53553 -1 1.83691e-015
      vertex -17.5355 14 3
      vertex -17.5355 14 0
    endloop
  endfacet
  facet normal -0.707107 -0.707107 0
    outer loop
      vertex -17.5355 14 3
      vertex -2.53553 -1 1.83691e-015
      vertex -2.53553 -1 3
    endloop
  endfacet
  facet normal -0.707107 -0.707107 0
    outer loop
      vertex -14 -19.5355 4.10678e-015
      vertex -17.5355 -16 3
      vertex -17.5355 -16 3.67382e-015
    endloop
  endfacet
  facet normal -0.707107 -0.707107 0
    outer loop
      vertex -17.5355 -16 3
      vertex -14 -19.5355 4.10678e-015
      vertex -14 -19.5355 3
    endloop
  endfacet
  facet normal 0.707107 0.707107 -0
    outer loop
      vertex 19.5169 13.9813 2.28658e-018
      vertex 15.9813 17.5169 3
      vertex 19.5169 13.9813 3
    endloop
  endfacet
  facet normal 0.707107 0.707107 0
    outer loop
      vertex 15.9813 17.5169 3
      vertex 19.5169 13.9813 2.28658e-018
      vertex 15.9813 17.5169 -4.30677e-016
    endloop
  endfacet
  facet normal -0.707107 0.707107 0
    outer loop
      vertex -17.5355 -16 3.67382e-015
      vertex -2.53553 -1 3
      vertex -2.53553 -1 1.83691e-015
    endloop
  endfacet
  facet normal -0.707107 0.707107 0
    outer loop
      vertex -2.53553 -1 3
      vertex -17.5355 -16 3.67382e-015
      vertex -17.5355 -16 3
    endloop
  endfacet
  facet normal -0.707107 0.707107 0
    outer loop
      vertex 1 2.53553 1.40395e-015
      vertex 15.9813 17.5169 3
      vertex 15.9813 17.5169 -4.30677e-016
    endloop
  endfacet
  facet normal -0.707107 0.707107 0
    outer loop
      vertex 15.9813 17.5169 3
      vertex 1 2.53553 1.40395e-015
      vertex 1 2.53553 3
    endloop
  endfacet
  facet normal 0.707107 -0.707107 0
    outer loop
      vertex 4.53553 -1 3
      vertex 19.5169 13.9813 2.28658e-018
      vertex 19.5169 13.9813 3
    endloop
  endfacet
  facet normal 0.707107 -0.707107 0
    outer loop
      vertex 19.5169 13.9813 2.28658e-018
      vertex 4.53553 -1 3
      vertex 4.53553 -1 1.83691e-015
    endloop
  endfacet
  facet normal 0.707107 -0.707107 0
    outer loop
      vertex -14 -19.5355 3
      vertex 1 -4.53553 2.26987e-015
      vertex 1 -4.53553 3
    endloop
  endfacet
  facet normal 0.707107 -0.707107 0
    outer loop
      vertex 1 -4.53553 2.26987e-015
      vertex -14 -19.5355 3
      vertex -14 -19.5355 4.10678e-015
    endloop
  endfacet
endsolid OpenSCAD_Model
