solid OpenSCAD_Model
  facet normal -1 0 0
    outer loop
      vertex 10.5 13.5 3.4
      vertex 10.5 10.5 3.4
      vertex 10.5 13.5 10.5
    endloop
  endfacet
  facet normal -1 0 0
    outer loop
      vertex 10.5 13.5 10.5
      vertex 10.5 20.6 13.5
      vertex 10.5 20.6 10.5
    endloop
  endfacet
  facet normal -1 0 0
    outer loop
      vertex 10.5 13.5 10.5
      vertex 10.5 10.5 13.5
      vertex 10.5 20.6 13.5
    endloop
  endfacet
  facet normal -1 0 0
    outer loop
      vertex 10.5 10.5 13.5
      vertex 10.5 13.5 10.5
      vertex 10.5 10.5 3.4
    endloop
  endfacet
  facet normal 0 0 1
    outer loop
      vertex 13.5 20.6 13.5
      vertex 10.5 20.6 13.5
      vertex 13.5 13.5 13.5
    endloop
  endfacet
  facet normal -0 0 1
    outer loop
      vertex 13.5 13.5 13.5
      vertex 20.6 10.5 13.5
      vertex 20.6 13.5 13.5
    endloop
  endfacet
  facet normal 0 0 1
    outer loop
      vertex 13.5 13.5 13.5
      vertex 10.5 10.5 13.5
      vertex 20.6 10.5 13.5
    endloop
  endfacet
  facet normal 0 0 1
    outer loop
      vertex 10.5 10.5 13.5
      vertex 13.5 13.5 13.5
      vertex 10.5 20.6 13.5
    endloop
  endfacet
  facet normal 1 -0 0
    outer loop
      vertex 13.5 13.5 13.5
      vertex 13.5 20.6 10.5
      vertex 13.5 20.6 13.5
    endloop
  endfacet
  facet normal 1 0 0
    outer loop
      vertex 13.5 20.6 10.5
      vertex 13.5 13.5 13.5
      vertex 13.5 13.5 10.5
    endloop
  endfacet
  facet normal 1 -0 0
    outer loop
      vertex 13.5 10.5 10.5
      vertex 13.5 13.5 3.4
      vertex 13.5 13.5 10.5
    endloop
  endfacet
  facet normal 1 0 0
    outer loop
      vertex 13.5 13.5 3.4
      vertex 13.5 10.5 10.5
      vertex 13.5 10.5 3.4
    endloop
  endfacet
  facet normal 0 1 -0
    outer loop
      vertex 13.5 13.5 3.4
      vertex 10.5 13.5 10.5
      vertex 13.5 13.5 10.5
    endloop
  endfacet
  facet normal 0 1 0
    outer loop
      vertex 10.5 13.5 10.5
      vertex 13.5 13.5 3.4
      vertex 10.5 13.5 3.4
    endloop
  endfacet
  facet normal 0 0 -1
    outer loop
      vertex 10.5 10.5 3.4
      vertex 13.5 13.5 3.4
      vertex 13.5 10.5 3.4
    endloop
  endfacet
  facet normal -0 0 -1
    outer loop
      vertex 13.5 13.5 3.4
      vertex 10.5 10.5 3.4
      vertex 10.5 13.5 3.4
    endloop
  endfacet
  facet normal 0 -1 0
    outer loop
      vertex 10.5 10.5 13.5
      vertex 13.5 10.5 10.5
      vertex 20.6 10.5 13.5
    endloop
  endfacet
  facet normal 0 -1 0
    outer loop
      vertex 10.5 10.5 3.4
      vertex 13.5 10.5 10.5
      vertex 10.5 10.5 13.5
    endloop
  endfacet
  facet normal 0 -1 -0
    outer loop
      vertex 13.5 10.5 10.5
      vertex 10.5 10.5 3.4
      vertex 13.5 10.5 3.4
    endloop
  endfacet
  facet normal 0 -1 -0
    outer loop
      vertex 20.6 10.5 13.5
      vertex 13.5 10.5 10.5
      vertex 20.6 10.5 10.5
    endloop
  endfacet
  facet normal 0 0 -1
    outer loop
      vertex 10.5 13.5 10.5
      vertex 13.5 20.6 10.5
      vertex 13.5 13.5 10.5
    endloop
  endfacet
  facet normal -0 0 -1
    outer loop
      vertex 13.5 20.6 10.5
      vertex 10.5 13.5 10.5
      vertex 10.5 20.6 10.5
    endloop
  endfacet
  facet normal 0 1 -0
    outer loop
      vertex 13.5 20.6 10.5
      vertex 10.5 20.6 13.5
      vertex 13.5 20.6 13.5
    endloop
  endfacet
  facet normal 0 1 0
    outer loop
      vertex 10.5 20.6 13.5
      vertex 13.5 20.6 10.5
      vertex 10.5 20.6 10.5
    endloop
  endfacet
  facet normal 0 1 -0
    outer loop
      vertex 20.6 13.5 10.5
      vertex 13.5 13.5 13.5
      vertex 20.6 13.5 13.5
    endloop
  endfacet
  facet normal 0 1 0
    outer loop
      vertex 13.5 13.5 13.5
      vertex 20.6 13.5 10.5
      vertex 13.5 13.5 10.5
    endloop
  endfacet
  facet normal 0 0 -1
    outer loop
      vertex 13.5 10.5 10.5
      vertex 20.6 13.5 10.5
      vertex 20.6 10.5 10.5
    endloop
  endfacet
  facet normal -0 0 -1
    outer loop
      vertex 20.6 13.5 10.5
      vertex 13.5 10.5 10.5
      vertex 13.5 13.5 10.5
    endloop
  endfacet
  facet normal 1 -0 0
    outer loop
      vertex 20.6 10.5 13.5
      vertex 20.6 13.5 10.5
      vertex 20.6 13.5 13.5
    endloop
  endfacet
  facet normal 1 0 0
    outer loop
      vertex 20.6 13.5 10.5
      vertex 20.6 10.5 13.5
      vertex 20.6 10.5 10.5
    endloop
  endfacet
endsolid OpenSCAD_Model
